<?xml version="1.0" encoding="UTF-8"?>
<svg xmlns="http://www.w3.org/2000/svg" xmlns:xlink="http://www.w3.org/1999/xlink" width="100pt" height="100pt" viewBox="0 0 100 100" version="1.1">
<g id="surface1">
<path style=" stroke:none;fill-rule:nonzero;fill:rgb(30.980392%,100%,0%);fill-opacity:1;" d="M 41.960938 49.480469 L 49.015625 42.425781 C 49.28125 42.160156 49.609375 42.023438 50 42.023438 C 50.398438 42.023438 50.722656 42.160156 50.976562 42.425781 L 58.03125 49.480469 C 58.304688 49.753906 58.441406 50.082031 58.441406 50.464844 C 58.441406 50.84375 58.304688 51.167969 58.03125 51.441406 L 57.214844 52.253906 C 56.957031 52.527344 56.632812 52.664062 56.242188 52.664062 C 55.851562 52.664062 55.527344 52.527344 55.265625 52.253906 L 52.082031 49.078125 L 52.082031 56.707031 C 52.082031 57.082031 51.945312 57.386719 51.675781 57.625 C 51.402344 57.859375 51.078125 57.976562 50.695312 57.976562 L 49.304688 57.976562 C 48.921875 57.976562 48.597656 57.859375 48.324219 57.625 C 48.054688 57.386719 47.917969 57.082031 47.917969 56.707031 L 47.917969 49.078125 L 44.734375 52.253906 C 44.472656 52.527344 44.148438 52.664062 43.757812 52.664062 C 43.375 52.664062 43.046875 52.527344 42.773438 52.253906 L 41.960938 51.441406 C 41.691406 51.160156 41.558594 50.835938 41.558594 50.464844 C 41.558594 50.089844 41.691406 49.761719 41.960938 49.480469 Z M 41.960938 49.480469 "/>
</g>
</svg>
