<?xml version="1.0" encoding="UTF-8"?>
<svg xmlns="http://www.w3.org/2000/svg" xmlns:xlink="http://www.w3.org/1999/xlink" width="10pt" height="10pt" viewBox="0 0 10 10" version="1.1">
<g id="surface1">
<path style=" stroke:none;fill-rule:nonzero;fill:rgb(36.862745%,100%,0%);fill-opacity:1;" d="M 9.761719 4.691406 L 5.585938 0.511719 C 5.425781 0.355469 5.230469 0.277344 5 0.277344 C 4.765625 0.277344 4.570312 0.355469 4.421875 0.511719 L 0.242188 4.691406 C 0.0820312 4.855469 0 5.050781 0 5.277344 C 0 5.5 0.0820312 5.691406 0.242188 5.855469 L 0.726562 6.335938 C 0.878906 6.496094 1.070312 6.578125 1.304688 6.578125 C 1.535156 6.578125 1.726562 6.496094 1.878906 6.335938 L 3.769531 4.453125 L 3.769531 8.972656 C 3.769531 9.195312 3.847656 9.375 4.007812 9.515625 C 4.167969 9.65625 4.363281 9.722656 4.589844 9.722656 L 5.410156 9.722656 C 5.636719 9.722656 5.832031 9.65625 5.992188 9.515625 C 6.152344 9.375 6.230469 9.195312 6.230469 8.972656 L 6.230469 4.453125 L 8.121094 6.335938 C 8.273438 6.496094 8.464844 6.578125 8.695312 6.578125 C 8.925781 6.578125 9.117188 6.496094 9.28125 6.335938 L 9.761719 5.855469 C 9.921875 5.6875 10 5.496094 10 5.277344 C 10 5.054688 9.921875 4.859375 9.761719 4.691406 Z M 9.761719 4.691406 "/>
</g>
</svg>
