<?xml version="1.0" encoding="UTF-8"?>
<svg xmlns="http://www.w3.org/2000/svg" xmlns:xlink="http://www.w3.org/1999/xlink" width="10pt" height="10pt" viewBox="0 0 10 10" version="1.1">
<g id="surface1">
<path style=" stroke:none;fill-rule:nonzero;fill:rgb(95.686275%,1.176471%,1.176471%);fill-opacity:1;" d="M 9.394531 5.285156 L 5.539062 9.140625 C 5.390625 9.285156 5.210938 9.359375 5 9.359375 C 4.78125 9.359375 4.605469 9.285156 4.46875 9.140625 L 0.609375 5.285156 C 0.460938 5.132812 0.386719 4.953125 0.386719 4.746094 C 0.386719 4.539062 0.460938 4.359375 0.609375 4.210938 L 1.054688 3.765625 C 1.195312 3.617188 1.375 3.542969 1.585938 3.542969 C 1.800781 3.542969 1.976562 3.617188 2.121094 3.765625 L 3.863281 5.503906 L 3.863281 1.335938 C 3.863281 1.128906 3.9375 0.960938 4.085938 0.835938 C 4.234375 0.703125 4.414062 0.640625 4.621094 0.640625 L 5.378906 0.640625 C 5.585938 0.640625 5.765625 0.703125 5.914062 0.835938 C 6.0625 0.960938 6.136719 1.128906 6.136719 1.335938 L 6.136719 5.503906 L 7.878906 3.765625 C 8.019531 3.617188 8.195312 3.542969 8.414062 3.542969 C 8.621094 3.542969 8.800781 3.617188 8.953125 3.765625 L 9.394531 4.210938 C 9.539062 4.367188 9.613281 4.542969 9.613281 4.746094 C 9.613281 4.953125 9.539062 5.132812 9.394531 5.285156 Z M 9.394531 5.285156 "/>
</g>
</svg>
