<svg xmlns="http://www.w3.org/2000/svg" xmlns:xlink="http://www.w3.org/1999/xlink" width="80" height="80" viewBox="0 0 80 80">
  <defs>
    <clipPath id="clip-path">
      <circle id="Ellipse_9" data-name="Ellipse 9" cx="40" cy="40" r="40" transform="translate(56 24)" fill="#fff" stroke="#707070" stroke-width="1"/>
    </clipPath>
  </defs>
  <g id="Group_32" data-name="Group 32" transform="translate(-1248 8904)">
    <g id="Mask_Group_20" data-name="Mask Group 20" transform="translate(1192 -8928)" clip-path="url(#clip-path)">
      <g id="trophy" transform="translate(61 30.697)">
        <g id="Group_29" data-name="Group 29" transform="translate(5.748)">
          <g id="Group_28" data-name="Group 28">
            <path id="Path_159" data-name="Path 159" d="M62.277,6.5a4.874,4.874,0,0,0-3.719-1.72H53.851V3.3a3.308,3.308,0,0,0-3.3-3.3H18.631a3.308,3.308,0,0,0-3.3,3.3V4.776H10.62A4.874,4.874,0,0,0,6.9,6.5a4.815,4.815,0,0,0-1.091,3.9A25.224,25.224,0,0,0,18.625,28.4a33.263,33.263,0,0,0,2.106,4.222c2.5,4.207,5.608,7.114,9.029,8.52a7.121,7.121,0,0,1-5.5,7.618l-.02.006a1.558,1.558,0,0,0-1.2,1.515v7.152H20.152a4.682,4.682,0,0,0-4.677,4.677V65.8a1.559,1.559,0,0,0,1.559,1.559H52.292A1.559,1.559,0,0,0,53.851,65.8V62.111a4.682,4.682,0,0,0-4.677-4.677H46.282V50.282a1.558,1.558,0,0,0-1.2-1.516l-.019-.005a7.115,7.115,0,0,1-5.493-7.683c3.361-1.429,6.415-4.31,8.878-8.455A33.279,33.279,0,0,0,50.554,28.4,25.225,25.225,0,0,0,63.368,10.393,4.814,4.814,0,0,0,62.277,6.5ZM8.888,9.893a1.68,1.68,0,0,1,.388-1.377,1.761,1.761,0,0,1,1.344-.622h4.707v2.868A48.989,48.989,0,0,0,16.989,23.6,22.078,22.078,0,0,1,8.888,9.893Zm40.287,50.66a1.561,1.561,0,0,1,1.559,1.559v2.132H18.593V62.111a1.561,1.561,0,0,1,1.559-1.559Zm-6.011-8.711v5.593h-17V51.841ZM30.252,48.723A10.322,10.322,0,0,0,31.3,47.347,10.142,10.142,0,0,0,32.914,42a12.224,12.224,0,0,0,3.5-.021,10.263,10.263,0,0,0,2.677,6.748H30.252Zm20.481-37.96c0,7.681-1.764,14.879-4.966,20.268-3.051,5.135-7.021,7.963-11.177,7.963s-8.127-2.828-11.179-7.963c-3.2-5.389-4.966-12.587-4.966-20.268V3.3a.186.186,0,0,1,.186-.186H50.547a.186.186,0,0,1,.186.186Zm9.557-.87A22.079,22.079,0,0,1,52.19,23.6a48.992,48.992,0,0,0,1.662-12.838V7.894h4.707a1.761,1.761,0,0,1,1.344.622A1.68,1.68,0,0,1,60.29,9.893Z" transform="translate(-5.748)" fill="#5db057"/>
          </g>
        </g>
        <g id="Group_31" data-name="Group 31" transform="translate(25.048 9.129)">
          <g id="Group_30" data-name="Group 30">
            <path id="Path_160" data-name="Path 160" d="M47.675,17.719a1.56,1.56,0,0,0-1.259-1.061l-4.7-.684-2.1-4.263a1.559,1.559,0,0,0-2.8,0l-2.1,4.263-4.7.684a1.559,1.559,0,0,0-.864,2.659l3.4,3.318-.8,4.685A1.559,1.559,0,0,0,34,28.965l4.208-2.212,4.208,2.212a1.559,1.559,0,0,0,2.262-1.644l-.8-4.685,3.4-3.318A1.559,1.559,0,0,0,47.675,17.719Zm-6.562,3.256a1.559,1.559,0,0,0-.448,1.38l.408,2.38-2.137-1.124a1.56,1.56,0,0,0-1.451,0l-2.137,1.124.408-2.38a1.559,1.559,0,0,0-.448-1.38l-1.729-1.685,2.39-.347a1.559,1.559,0,0,0,1.174-.853l1.069-2.165,1.069,2.165a1.559,1.559,0,0,0,1.174.853l2.389.347Z" transform="translate(-28.669 -10.842)" fill="#5db057"/>
          </g>
        </g>
      </g>
    </g>
    <rect id="Rectangle_211" data-name="Rectangle 211" width="80" height="80" transform="translate(1248 -8904)" fill="none"/>
  </g>
</svg>
