<svg xmlns="http://www.w3.org/2000/svg" xmlns:xlink="http://www.w3.org/1999/xlink" width="80" height="80" viewBox="0 0 80 80">
  <defs>
    <clipPath id="clip-path">
      <circle id="Ellipse_9" data-name="Ellipse 9" cx="40" cy="40" r="40" transform="translate(933 -9230)" fill="#fff" stroke="#707070" stroke-width="1"/>
    </clipPath>
  </defs>
  <g id="Group_28" data-name="Group 28" transform="translate(-954 9243)">
    <g id="Mask_Group_20" data-name="Mask Group 20" transform="translate(21 -13)" clip-path="url(#clip-path)">
      <g id="american-football" transform="translate(945.209 -9217.554)">
        <path id="Path_159" data-name="Path 159" d="M56.6,1.749A6,6,0,0,0,52.161,0,74.645,74.645,0,0,0,34.542,2.725c-8.38,2.4-15.234,6.229-20.372,11.367S5.207,26.084,2.8,34.464A74.645,74.645,0,0,0,.082,52.083a5.973,5.973,0,0,0,5.973,6.183c.069,0,.138,0,.207,0A74.645,74.645,0,0,0,23.88,55.541c8.38-2.4,15.234-6.229,20.372-11.367S53.215,32.182,55.619,23.8A74.645,74.645,0,0,0,58.341,6.183,5.994,5.994,0,0,0,56.6,1.749Zm-4.313,1.7a2.52,2.52,0,0,1,2.609,2.609,73.149,73.149,0,0,1-1.436,11.993L40.289,4.89A73.2,73.2,0,0,1,52.282,3.454ZM6.141,54.813A2.52,2.52,0,0,1,3.532,52.2,73.248,73.248,0,0,1,4.968,40.211L18.133,53.376A73.2,73.2,0,0,1,6.141,54.813ZM41.812,41.733C36.17,47.375,28.84,50.6,22.076,52.437L5.907,36.268c1.839-6.764,5.062-14.094,10.7-19.736s12.972-8.865,19.736-10.7L52.515,22C50.677,28.762,47.453,36.092,41.812,41.733Zm0,0" transform="translate(0 0)"/>
        <path id="Path_160" data-name="Path 160" d="M47.726,22.652a1.726,1.726,0,0,0-2.441,0l-2.212,2.212-1.395-1.395a1.726,1.726,0,0,0-2.441,2.441L40.632,27.3l-2.789,2.789L36.449,28.7a1.726,1.726,0,1,0-2.441,2.441L35.4,32.534l-2.789,2.789-1.395-1.395a1.726,1.726,0,0,0-2.441,2.441l1.395,1.395-2.789,2.789-1.395-1.395A1.726,1.726,0,0,0,23.547,41.6l1.395,1.395L22.73,45.206a1.726,1.726,0,0,0,2.441,2.441l2.212-2.212,1.395,1.395a1.726,1.726,0,0,0,2.441-2.441l-1.395-1.395,2.789-2.789L34.007,41.6a1.726,1.726,0,0,0,2.441-2.441l-1.395-1.395,2.789-2.789,1.395,1.395a1.726,1.726,0,1,0,2.441-2.441l-1.395-1.395,2.789-2.789,1.395,1.395A1.726,1.726,0,1,0,46.908,28.7L45.513,27.3l2.212-2.212A1.725,1.725,0,0,0,47.726,22.652Zm0,0" transform="translate(-6.017 -6.017)"/>
      </g>
    </g>
    <rect id="Rectangle_211" data-name="Rectangle 211" width="80" height="80" transform="translate(954 -9243)" fill="none"/>
  </g>
</svg>
