<svg xmlns="http://www.w3.org/2000/svg" xmlns:xlink="http://www.w3.org/1999/xlink" width="80" height="80" viewBox="0 0 80 80">
  <defs>
    <clipPath id="clip-path">
      <circle id="Ellipse_14" data-name="Ellipse 14" cx="40" cy="40" r="40" transform="translate(850 -9029)" fill="#fff" stroke="#707070" stroke-width="1"/>
    </clipPath>
  </defs>
  <g id="american-footbal-icon" transform="translate(-919 9025)">
    <g id="Mask_Group_25" data-name="Mask Group 25" transform="translate(69 4)" clip-path="url(#clip-path)">
      <g id="american-football" transform="translate(860.866 -9016.754)">
        <path id="Path_164" data-name="Path 164" d="M55.182,1.705A5.845,5.845,0,0,0,50.859,0,72.778,72.778,0,0,0,33.681,2.657C25.51,5,18.827,8.73,13.818,13.739S5.079,25.432,2.735,33.6A72.779,72.779,0,0,0,.082,50.781,5.823,5.823,0,0,0,5.905,56.81c.067,0,.134,0,.2,0a72.779,72.779,0,0,0,17.179-2.653c8.17-2.344,14.853-6.073,19.863-11.083s8.738-11.692,11.083-19.863A72.779,72.779,0,0,0,56.884,6.028,5.844,5.844,0,0,0,55.182,1.705ZM50.977,3.367A2.457,2.457,0,0,1,53.52,5.911,71.32,71.32,0,0,1,52.12,17.6L39.284,4.768A71.369,71.369,0,0,1,50.977,3.367ZM5.989,53.442A2.457,2.457,0,0,1,3.445,50.9a71.416,71.416,0,0,1,1.4-11.693L17.682,52.042A71.369,71.369,0,0,1,5.989,53.442ZM40.768,40.69c-5.5,5.5-12.647,8.643-19.242,10.436L5.762,35.362C7.554,28.767,10.7,21.62,16.2,16.119S28.845,7.476,35.44,5.683L51.2,21.448C49.412,28.043,46.268,35.19,40.768,40.69Zm0,0" transform="translate(0 0)" fill="#5db057"/>
        <path id="Path_165" data-name="Path 165" d="M47.088,22.639a1.683,1.683,0,0,0-2.38,0L42.552,24.8l-1.36-1.36a1.683,1.683,0,1,0-2.38,2.38l1.36,1.36-2.719,2.719-1.36-1.36a1.683,1.683,0,0,0-2.38,2.38l1.36,1.36-2.719,2.719-1.36-1.36a1.683,1.683,0,0,0-2.38,2.38l1.36,1.36-2.719,2.72-1.36-1.36a1.683,1.683,0,0,0-2.38,2.38l1.36,1.36L22.717,44.63a1.683,1.683,0,0,0,2.38,2.38l2.156-2.156,1.36,1.36a1.683,1.683,0,1,0,2.38-2.38l-1.36-1.36,2.719-2.719,1.36,1.36a1.683,1.683,0,1,0,2.38-2.38l-1.36-1.36,2.719-2.719,1.36,1.36a1.683,1.683,0,0,0,2.38-2.38l-1.36-1.36,2.719-2.719,1.36,1.36a1.683,1.683,0,1,0,2.38-2.38l-1.36-1.36,2.157-2.157A1.682,1.682,0,0,0,47.088,22.639Zm0,0" transform="translate(-6.42 -6.42)" fill="#5db057"/>
      </g>
    </g>
    <rect id="Rectangle_216" data-name="Rectangle 216" width="80" height="80" transform="translate(919 -9025)" fill="none"/>
  </g>
</svg>
