<svg xmlns="http://www.w3.org/2000/svg" xmlns:xlink="http://www.w3.org/1999/xlink" width="80" height="80" viewBox="0 0 80 80">
  <defs>
    <clipPath id="clip-path">
      <circle id="Ellipse_15" data-name="Ellipse 15" cx="40" cy="40" r="40" transform="translate(908 -9059)" fill="#fff" stroke="#707070" stroke-width="1"/>
    </clipPath>
  </defs>
  <g id="aussie-rules-icon" transform="translate(-982 9055)">
    <g id="Mask_Group_26" data-name="Mask Group 26" transform="translate(74 4)" clip-path="url(#clip-path)">
      <g id="aussie-rules" transform="translate(920.089 -9047.166)">
        <path id="Path_166" data-name="Path 166" d="M55.612,1.862,55.441.636,54.214.464a72.533,72.533,0,0,0-15.659-.1A57.119,57.119,0,0,0,24.639,3.412a35.5,35.5,0,0,0-13.082,8.066A35.5,35.5,0,0,0,3.49,24.561,57.094,57.094,0,0,0,.443,38.478a72.536,72.536,0,0,0,.1,15.659l.171,1.227,1.227.171A64.562,64.562,0,0,0,10.12,56c2.208,0,4.75-.094,7.478-.365a57.113,57.113,0,0,0,13.917-3.047A35.5,35.5,0,0,0,44.6,44.52a35.494,35.494,0,0,0,8.066-13.082,57.1,57.1,0,0,0,3.047-13.917A72.5,72.5,0,0,0,55.612,1.862ZM52.5,3.576a71.986,71.986,0,0,1,.277,7.939L44.561,3.3A71.984,71.984,0,0,1,52.5,3.576Zm-13.7.061q.675-.068,1.335-.12L52.56,15.936q-.053.66-.12,1.335c-.186,1.843-.47,3.863-.9,5.965l-18.7-18.7C34.943,4.106,36.963,3.822,38.805,3.637ZM3.654,52.423a71.984,71.984,0,0,1-.277-7.939L11.593,52.7A71.973,71.973,0,0,1,3.654,52.423Zm13.7-.062q-.675.068-1.335.12L3.595,40.063q.053-.66.12-1.335c.186-1.843.47-3.863.9-5.965l18.7,18.7C21.211,51.892,19.192,52.176,17.349,52.362ZM42.279,42.2a34.519,34.519,0,0,1-15.227,8.364L5.512,29.024A34.52,34.52,0,0,1,13.876,13.8,34.527,34.527,0,0,1,29.1,5.434l21.54,21.541A34.521,34.521,0,0,1,42.279,42.2Zm0,0" transform="translate(0 0)" fill="#5db057"/>
        <path id="Path_167" data-name="Path 167" d="M40.442,24.176l2.319-2.319L52.887,31.982,50.568,34.3Zm0,0" transform="translate(-12.11 -6.557)" fill="#5db057"/>
        <path id="Path_168" data-name="Path 168" d="M21.934,42.684l2.319-2.319L34.379,50.49,32.059,52.81Zm0,0" transform="translate(-6.557 -12.11)" fill="#5db057"/>
        <path id="Path_169" data-name="Path 169" d="M31.188,33.43l2.319-2.319L43.633,41.237l-2.319,2.319Zm0,0" transform="translate(-9.333 -9.334)" fill="#5db057"/>
      </g>
    </g>
    <rect id="Rectangle_217" data-name="Rectangle 217" width="80" height="80" transform="translate(982 -9055)" fill="none"/>
  </g>
</svg>
