<svg xmlns="http://www.w3.org/2000/svg" xmlns:xlink="http://www.w3.org/1999/xlink" width="80" height="80" viewBox="0 0 80 80">
  <defs>
    <clipPath id="clip-path">
      <circle id="Ellipse_9" data-name="Ellipse 9" cx="40" cy="40" r="40" transform="translate(758 -9236)" fill="#fff" stroke="#707070" stroke-width="1"/>
    </clipPath>
  </defs>
  <g id="Group_28" data-name="Group 28" transform="translate(-766 9257)">
    <g id="Mask_Group_20" data-name="Mask Group 20" transform="translate(8 -21)" clip-path="url(#clip-path)">
      <g id="aussie-rules" transform="translate(768.922 -9223.541)">
        <path id="Path_159" data-name="Path 159" d="M56.611,1.847,56.437.631,55.188.461a75.772,75.772,0,0,0-15.94-.1A59.46,59.46,0,0,0,25.081,3.384a36.3,36.3,0,0,0-13.318,8A35.079,35.079,0,0,0,3.552,24.36a55.388,55.388,0,0,0-3.1,13.8,70.107,70.107,0,0,0,.1,15.531L.725,54.91l1.249.17a67.433,67.433,0,0,0,8.327.461c2.248,0,4.835-.093,7.613-.362a59.454,59.454,0,0,0,14.168-3.022,36.3,36.3,0,0,0,13.318-8A35.075,35.075,0,0,0,53.61,31.181a55.4,55.4,0,0,0,3.1-13.8A70.076,70.076,0,0,0,56.611,1.847Zm-3.167,1.7a69.571,69.571,0,0,1,.282,7.874L45.362,3.272A75.2,75.2,0,0,1,53.444,3.546ZM39.5,3.607q.688-.067,1.359-.119L53.5,15.806q-.054.655-.122,1.324a58.711,58.711,0,0,1-.912,5.916L33.43,4.5C35.57,4.073,37.627,3.791,39.5,3.607ZM3.718,51.995a69.571,69.571,0,0,1-.282-7.874L11.8,52.269A75.191,75.191,0,0,1,3.718,51.995Zm13.942-.061q-.688.067-1.359.119L3.658,39.735q.054-.655.122-1.324A58.712,58.712,0,0,1,4.693,32.5l19.039,18.55C21.592,51.468,19.536,51.75,17.66,51.934ZM43.038,41.856c-4.372,4.26-10.025,6.8-15.5,8.3L5.61,28.787a33.992,33.992,0,0,1,8.515-15.1c4.372-4.259,10.025-6.8,15.5-8.3L51.553,26.754A33.993,33.993,0,0,1,43.038,41.856Zm0,0" transform="translate(0 0)"/>
        <path id="Path_160" data-name="Path 160" d="M40.442,24.361l2.505-2.505L53.885,32.793,51.379,35.3Zm0,0" transform="translate(-12.103 -7.068)"/>
        <path id="Path_161" data-name="Path 161" d="M21.934,42.87l2.505-2.505L35.376,51.3l-2.505,2.505Zm0,0" transform="translate(-6.553 -13.054)"/>
        <path id="Path_162" data-name="Path 162" d="M31.188,33.616l2.505-2.505L44.63,42.048l-2.505,2.505Zm0,0" transform="translate(-9.328 -10.061)"/>
      </g>
    </g>
    <rect id="Rectangle_211" data-name="Rectangle 211" width="80" height="80" transform="translate(766 -9257)" fill="none"/>
  </g>
</svg>
