<svg xmlns="http://www.w3.org/2000/svg" xmlns:xlink="http://www.w3.org/1999/xlink" width="80" height="80" viewBox="0 0 80 80">
  <defs>
    <clipPath id="clip-path">
      <circle id="Ellipse_16" data-name="Ellipse 16" cx="40" cy="40" r="40" transform="translate(871 -9016)" fill="#fff" stroke="#707070" stroke-width="1"/>
    </clipPath>
  </defs>
  <g id="baseball-icon" transform="translate(-964 9016)">
    <g id="Mask_Group_27" data-name="Mask Group 27" transform="translate(93)" clip-path="url(#clip-path)">
      <path id="baseball" d="M48.441,23.2l5.324-3.733A10.7,10.7,0,1,0,38.856,4.553l-11.167,15.9a135.562,135.562,0,0,1-15.04,17.9l-2.474,2.473a42.364,42.364,0,0,1-6.063,5.025L0,48.918l9.415,9.415,2.971-4.05.041-.059a42.384,42.384,0,0,1,5.209-6.335l2.007-2.007A135.619,135.619,0,0,1,29.931,36.6a13.1,13.1,0,1,0,18.51-13.4Zm3.414,8.114-4.6,4.545a3.988,3.988,0,0,1-5.645-5.635l4.387-4.318a9.651,9.651,0,0,1,5.861,5.408ZM9.015,53.1l-3.8-3.8.856-.638q.991-.678,1.947-1.41l3.029,3.029q-.744.988-1.436,2.012Zm4.2-5.485-2.551-2.551q.991-.882,1.929-1.815l.383-.383L15.4,45.291l-.182.182Q14.183,46.508,13.215,47.614Zm4.6-4.738-2.43-2.43a139,139,0,0,0,15.1-18.025l11.167-15.9A7.286,7.286,0,1,1,51.8,16.668L44.126,22.05a13.082,13.082,0,0,0-13.918,9.963A139.132,139.132,0,0,0,17.82,42.876Zm31.969-.935a9.685,9.685,0,1,1-8.274-16.423L39.2,27.792l-.01.009A7.406,7.406,0,0,0,49.66,38.283l2.954-2.917A9.645,9.645,0,0,1,49.789,41.941Zm0,0" transform="translate(881.626 -9004.954)" fill="#5db057"/>
    </g>
    <rect id="Rectangle_218" data-name="Rectangle 218" width="80" height="80" transform="translate(964 -9016)" fill="none"/>
  </g>
</svg>
