<svg xmlns="http://www.w3.org/2000/svg" xmlns:xlink="http://www.w3.org/1999/xlink" width="80" height="80" viewBox="0 0 80 80">
  <defs>
    <clipPath id="clip-path">
      <circle id="Ellipse_9" data-name="Ellipse 9" cx="40" cy="40" r="40" transform="translate(735 -9227)" fill="#fff" stroke="#707070" stroke-width="1"/>
    </clipPath>
  </defs>
  <g id="Group_28" data-name="Group 28" transform="translate(-743 9252)">
    <g id="Mask_Group_20" data-name="Mask Group 20" transform="translate(8 -25)" clip-path="url(#clip-path)">
      <path id="baseball" d="M52.147,24.975l5.731-4.018A11.523,11.523,0,1,0,41.828,4.9L29.807,22.022a145.934,145.934,0,0,1-16.191,19.27l-2.663,2.662a45.605,45.605,0,0,1-6.527,5.409L0,52.661,10.135,62.8l3.2-4.36.044-.063a45.626,45.626,0,0,1,5.607-6.819l2.161-2.161A146,146,0,0,1,32.221,39.4,14.1,14.1,0,1,0,52.147,24.975Zm3.675,8.734L50.866,38.6a4.293,4.293,0,0,1-6.076-6.066l4.722-4.648a10.389,10.389,0,0,1,6.31,5.821ZM9.7,57.161,5.611,53.068l.921-.687q1.067-.729,2.1-1.518l3.261,3.261q-.8,1.064-1.546,2.166Zm4.521-5.9-2.747-2.746q1.066-.949,2.076-1.954l.412-.412,2.611,2.611-.2.2Q15.268,50.066,14.226,51.257Zm4.957-5.1-2.615-2.615a149.635,149.635,0,0,0,16.251-19.4L44.84,7.016A7.844,7.844,0,1,1,55.765,17.944L47.5,23.737A14.083,14.083,0,0,0,32.52,34.463,149.779,149.779,0,0,0,19.183,46.157ZM53.6,45.15A10.426,10.426,0,1,1,44.69,27.471L42.2,29.919l-.011.01A7.973,7.973,0,0,0,53.459,41.212l3.18-3.14A10.383,10.383,0,0,1,53.6,45.15Zm0,0" transform="translate(743.358 -9217.47)"/>
    </g>
    <rect id="Rectangle_211" data-name="Rectangle 211" width="80" height="80" transform="translate(743 -9252)" fill="none"/>
  </g>
</svg>
