<svg xmlns="http://www.w3.org/2000/svg" xmlns:xlink="http://www.w3.org/1999/xlink" width="80" height="80" viewBox="0 0 80 80">
  <defs>
    <clipPath id="clip-path">
      <circle id="Ellipse_18" data-name="Ellipse 18" cx="40" cy="40" r="40" transform="translate(954 -8933)" fill="#fff" stroke="#707070" stroke-width="1"/>
    </clipPath>
  </defs>
  <g id="cricet-icon" transform="translate(-1030 8928)">
    <g id="Mask_Group_29" data-name="Mask Group 29" transform="translate(76 5)" clip-path="url(#clip-path)">
      <path id="cricket" d="M58.936,7.819l-5.1-5.1a9.03,9.03,0,0,0-12.757,0L13.9,29.89a8.942,8.942,0,0,0-2.6,6.379v6.467l-9.721,9.68a5.412,5.412,0,1,0,7.657,7.651l9.677-9.718h6.467a8.94,8.94,0,0,0,6.379-2.6l7.029-7.028a9.023,9.023,0,0,0,12.5-12.5l7.644-7.644A9.031,9.031,0,0,0,58.936,7.819ZM16.8,47.362l-1.2,1.207-2.514-2.514,1.207-1.2,6.271-3.762ZM10.5,53.683,7.969,51.147,10.526,48.6l2.525,2.525ZM4.134,57.518a1.806,1.806,0,0,1,0-2.549l1.281-1.275,2.546,2.546L6.686,57.518A1.807,1.807,0,0,1,4.134,57.518Zm43.459-20.5a5.412,5.412,0,1,1,0-7.654A5.409,5.409,0,0,1,47.593,37.021Zm8.792-19-7.643,7.643a9.023,9.023,0,0,0-12.5,12.5L29.21,45.2a5.358,5.358,0,0,1-3.827,1.542h-4l5.989-9.981a1.8,1.8,0,0,0-2.475-2.475l-9.981,5.989v-4a5.359,5.359,0,0,1,1.542-3.827L43.628,5.267a5.419,5.419,0,0,1,7.654,0l5.1,5.1A5.419,5.419,0,0,1,56.385,18.024Zm0,0" transform="translate(964.63 -8925.282)" fill="#5db057"/>
    </g>
    <rect id="Rectangle_220" data-name="Rectangle 220" width="80" height="80" transform="translate(1030 -8928)" fill="none"/>
  </g>
</svg>
