<svg xmlns="http://www.w3.org/2000/svg" xmlns:xlink="http://www.w3.org/1999/xlink" width="80" height="80" viewBox="0 0 80 80">
  <defs>
    <clipPath id="clip-path">
      <circle id="Ellipse_9" data-name="Ellipse 9" cx="40" cy="40" r="40" transform="translate(739 -9225)" fill="#fff" stroke="#707070" stroke-width="1"/>
    </clipPath>
  </defs>
  <g id="Group_28" data-name="Group 28" transform="translate(-746 9250)">
    <g id="Mask_Group_20" data-name="Mask Group 20" transform="translate(7 -25)" clip-path="url(#clip-path)">
      <path id="cricket" d="M58.427,7.752,53.368,2.693a8.952,8.952,0,0,0-12.646,0L13.782,29.633a8.864,8.864,0,0,0-2.576,6.323v6.411l-9.636,9.6A5.365,5.365,0,1,0,9.16,59.548l9.593-9.634h6.411a8.862,8.862,0,0,0,6.323-2.576l6.968-6.967A8.945,8.945,0,0,0,50.849,27.977L58.427,20.4A8.953,8.953,0,0,0,58.427,7.752Zm-41.773,39.2-1.192,1.2L12.97,45.658l1.2-1.192,6.217-3.73Zm-6.24,6.266L7.9,50.706l2.535-2.524,2.5,2.5ZM4.1,57.021a1.79,1.79,0,0,1,0-2.527l1.27-1.264L7.89,55.754,6.628,57.021A1.791,1.791,0,0,1,4.1,57.021ZM47.182,36.7a5.365,5.365,0,1,1,0-7.588A5.362,5.362,0,0,1,47.182,36.7ZM55.9,17.869,48.32,25.446A8.945,8.945,0,0,0,35.927,37.84l-6.969,6.969a5.311,5.311,0,0,1-3.794,1.528H21.194l5.937-9.895a1.788,1.788,0,0,0-2.454-2.454l-9.895,5.937V35.956a5.312,5.312,0,0,1,1.528-3.794L43.251,5.222a5.372,5.372,0,0,1,7.588,0L55.9,10.281A5.372,5.372,0,0,1,55.9,17.869Zm0,0" transform="translate(749.93 -9217.909)"/>
    </g>
    <rect id="Rectangle_211" data-name="Rectangle 211" width="80" height="80" transform="translate(746 -9250)" fill="none"/>
  </g>
</svg>
