<svg xmlns="http://www.w3.org/2000/svg" xmlns:xlink="http://www.w3.org/1999/xlink" width="80" height="80" viewBox="0 0 80 80">
  <defs>
    <clipPath id="clip-path">
      <circle id="Ellipse_21" data-name="Ellipse 21" cx="40" cy="40" r="40" transform="translate(962 -8868)" fill="#fff" stroke="#707070" stroke-width="1"/>
    </clipPath>
  </defs>
  <g id="rugby-icon" transform="translate(-1045 8864)">
    <g id="Mask_Group_32" data-name="Mask Group 32" transform="translate(83 4)" clip-path="url(#clip-path)">
      <g id="rugby" transform="translate(972.576 -8858.06)">
        <g id="Group_47" data-name="Group 47" transform="translate(0.052)">
          <g id="Group_46" data-name="Group 46">
            <path id="Path_173" data-name="Path 173" d="M57.114,2.272C55.077.235,49.827,0,47.633,0,37.761,0,23.657,3.6,13.628,13.633-1.494,28.677-1.729,53.124,2.188,57.12,4.3,59.157,9.162,59.47,11.826,59.47c9.716,0,23.741-3.6,33.927-13.712C60.718,30.793,61.5,6.66,57.114,2.272Zm-45.288,54.3c-4.78,0-7.052-.94-7.6-1.489C3.207,54.064,2.58,50.3,2.893,45.367L14.1,56.493C13.314,56.571,12.531,56.571,11.826,56.571Zm31.89-12.928c-7.6,7.6-17.708,11.2-25.935,12.458L3.285,41.684c1.175-8.227,4.7-18.413,12.38-26.092C23.109,8.149,32.9,4.544,41.287,3.291L56.1,18.1C54.92,26.092,51.316,36.043,43.716,43.643ZM56.487,14.5,44.969,2.9c.94-.078,1.8-.078,2.664-.078,4.78,0,6.973.94,7.444,1.41C56.174,5.328,56.879,9.246,56.487,14.5Z" transform="translate(-0.052 0)" fill="#5db057"/>
          </g>
        </g>
        <g id="Group_49" data-name="Group 49" transform="translate(16.821 16.826)">
          <g id="Group_48" data-name="Group 48">
            <path id="Path_174" data-name="Path 174" d="M47.937,33.154,43.863,29.08l2.586-2.586a1.441,1.441,0,1,0-2.037-2.037l-2.586,2.664-4.074-4.074a1.441,1.441,0,1,0-2.037,2.037l4.074,4.074-4.309,4.309L31.4,29.393a1.441,1.441,0,1,0-2.037,2.037L33.442,35.5l-4.309,4.309L25.058,35.74a1.441,1.441,0,0,0-2.037,2.037L27.1,41.851,24.51,44.437a1.467,1.467,0,0,0,0,2.037,1.3,1.3,0,0,0,1.019.392,1.65,1.65,0,0,0,1.019-.392l2.586-2.586,4.074,4.074a1.3,1.3,0,0,0,1.019.392,1.65,1.65,0,0,0,1.019-.392,1.467,1.467,0,0,0,0-2.037L31.17,41.773l4.309-4.309,4.074,4.074a1.3,1.3,0,0,0,1.019.392,1.65,1.65,0,0,0,1.019-.392,1.467,1.467,0,0,0,0-2.037l-4.074-4.074,4.309-4.309L45.9,35.191a1.3,1.3,0,0,0,1.019.392,1.65,1.65,0,0,0,1.019-.392A1.467,1.467,0,0,0,47.937,33.154Z" transform="translate(-22.609 -22.635)" fill="#5db057"/>
          </g>
        </g>
        <g id="Group_51" data-name="Group 51" transform="translate(9.59 8.316)">
          <g id="Group_50" data-name="Group 50">
            <path id="Path_175" data-name="Path 175" d="M36.43,12.195a1.407,1.407,0,0,0-1.8-.94C34,11.49,18.8,16.269,13,30.451a1.359,1.359,0,0,0,.784,1.88,1.333,1.333,0,0,0,.548.078,1.448,1.448,0,0,0,1.332-.862C20.995,18.62,35.334,14,35.49,14A1.407,1.407,0,0,0,36.43,12.195Z" transform="translate(-12.883 -11.187)" fill="#5db057"/>
          </g>
        </g>
      </g>
    </g>
    <rect id="Rectangle_223" data-name="Rectangle 223" width="80" height="80" transform="translate(1045 -8864)" fill="none"/>
  </g>
</svg>
