<svg xmlns="http://www.w3.org/2000/svg" xmlns:xlink="http://www.w3.org/1999/xlink" width="80" height="80" viewBox="0 0 80 80">
  <defs>
    <clipPath id="clip-path">
      <circle id="Ellipse_10" data-name="Ellipse 10" cx="40" cy="40" r="40" transform="translate(56 24)" fill="#fff" stroke="#707070" stroke-width="1"/>
    </clipPath>
  </defs>
  <g id="Group_33" data-name="Group 33" transform="translate(-1364 8919)">
    <g id="Mask_Group_21" data-name="Mask Group 21" transform="translate(1308 -8943)" clip-path="url(#clip-path)">
      <g id="football" transform="translate(56 24)">
        <g id="Group_32" data-name="Group 32">
          <path id="Path_161" data-name="Path 161" d="M68.284,11.716A40,40,0,1,0,11.716,68.284,40,40,0,1,0,68.284,11.716ZM68,15.475l-5.08,15.634-8.178,2.753L41.381,24.156V15.438l13.3-9.66A37.423,37.423,0,0,1,68,15.475ZM52.881,35.925l-4.92,15.142H32.039l-4.92-15.142L40,26.567ZM40,2.762A37.092,37.092,0,0,1,51.586,4.61L40,13.028,28.413,4.609A37.092,37.092,0,0,1,40,2.762ZM25.324,5.778l13.3,9.66v8.719L25.261,33.862l-8.178-2.753L12,15.475A37.417,37.417,0,0,1,25.324,5.778ZM2.761,40A37.036,37.036,0,0,1,9.937,18.052l4.424,13.617L2.763,40.1C2.762,40.064,2.761,40.032,2.761,40Zm.157,3.4,13.3-9.664L24.4,36.485,29.5,52.2l-5.051,6.853H8.017A36.975,36.975,0,0,1,2.918,43.4ZM9.84,61.815H24.146l4.428,13.628A37.39,37.39,0,0,1,9.84,61.815ZM40,77.238a37.214,37.214,0,0,1-8.237-.92l-5.08-15.636,5.051-6.853H48.266l5.052,6.853-5.08,15.636A37.221,37.221,0,0,1,40,77.238Zm11.425-1.8,4.428-13.628H70.16A37.39,37.39,0,0,1,51.425,75.443ZM71.982,59.054H55.548L50.5,52.2,55.6,36.485l8.178-2.753,13.3,9.664A36.972,36.972,0,0,1,71.982,59.054ZM65.639,31.669l4.424-13.617A37.036,37.036,0,0,1,77.238,40c0,.032,0,.064,0,.1Z" fill="#fff"/>
        </g>
      </g>
    </g>
    <rect id="Rectangle_211" data-name="Rectangle 211" width="80" height="80" transform="translate(1364 -8919)" fill="none"/>
  </g>
</svg>
