<svg xmlns="http://www.w3.org/2000/svg" xmlns:xlink="http://www.w3.org/1999/xlink" width="80" height="80" viewBox="0 0 80 80">
  <defs>
    <clipPath id="clip-path">
      <circle id="Ellipse_12" data-name="Ellipse 12" cx="40" cy="40" r="40" transform="translate(56 24)" fill="#fff" stroke="#707070" stroke-width="1"/>
    </clipPath>
  </defs>
  <g id="Group_33" data-name="Group 33" transform="translate(-1341 8929)">
    <rect id="Rectangle_211" data-name="Rectangle 211" width="80" height="80" transform="translate(1341 -8929)" fill="none"/>
    <g id="Mask_Group_23" data-name="Mask Group 23" transform="translate(1285 -8953)" clip-path="url(#clip-path)">
      <path id="tennis" d="M68.284,11.716A40,40,0,0,0,11.716,68.284,40,40,0,0,0,68.284,11.716ZM57.5,9.335V38.978a17.5,17.5,0,0,1-34.992,0V9.335a35.254,35.254,0,0,1,34.992,0ZM40,75.313A35.3,35.3,0,0,1,17.816,12.547V38.978a22.184,22.184,0,0,0,44.367,0V12.547A35.3,35.3,0,0,1,40,75.313Zm0,0" transform="translate(56 24)" fill="#fff"/>
    </g>
  </g>
</svg>
