<svg xmlns="http://www.w3.org/2000/svg" xmlns:xlink="http://www.w3.org/1999/xlink" width="80" height="80" viewBox="0 0 80 80">
  <defs>
    <clipPath id="clip-path">
      <circle id="Ellipse_13" data-name="Ellipse 13" cx="40" cy="40" r="40" transform="translate(56 24)" fill="#fff" stroke="#707070" stroke-width="1"/>
    </clipPath>
  </defs>
  <g id="Group_33" data-name="Group 33" transform="translate(-1356 8928)">
    <g id="Mask_Group_24" data-name="Mask Group 24" transform="translate(1300 -8952)" clip-path="url(#clip-path)">
      <g id="ball" transform="translate(56 24)">
        <path id="Path_163" data-name="Path 163" d="M78.5,29.25h0A39.984,39.984,0,1,0,8.333,64.417h0a1.762,1.762,0,0,0,1,1.167,41.106,41.106,0,0,0,18,12.333H27.5a39.266,39.266,0,0,0,12.5,2,40.117,40.117,0,0,0,40-40A37.492,37.492,0,0,0,78.5,29.25Zm-38.166,9a33.66,33.66,0,0,1-9-14.5c5.833-1.333,26.5-5,44,6.667a36.317,36.317,0,0,1,1.333,9.5,31.737,31.737,0,0,1-1.167,9C61.667,35.083,44.333,37.417,40.333,38.25ZM26.667,54.916c-3.667-4.833-16.5-23.5-8.833-43.667v-.333A39.241,39.241,0,0,1,27.167,5.75a36.661,36.661,0,0,0,.5,17.167v.167a.163.163,0,0,0,.167.167,42.07,42.07,0,0,0,10.333,17.5A43.2,43.2,0,0,1,26.667,54.916Zm47-29.333c-18-10-37.5-6.333-43.167-5a32.909,32.909,0,0,1,.5-16,40.356,40.356,0,0,1,9-1.167A36.864,36.864,0,0,1,73.667,25.583ZM13.167,15.25C8.5,34.916,20,51.917,24,56.916a38.722,38.722,0,0,1-13,5.5A36.636,36.636,0,0,1,3.5,40.249,35,35,0,0,1,13.167,15.25Zm.167,49.833A43.317,43.317,0,0,0,41.5,41.417a37.669,37.669,0,0,1,19.167,1.667c-2,5-11.333,26.333-32.5,31.5A34,34,0,0,1,13.333,65.083ZM40,76.75a34.474,34.474,0,0,1-5.833-.5c19-7.333,27.5-26.5,29.5-31.667A36.339,36.339,0,0,1,74.5,52.75,36.773,36.773,0,0,1,40,76.75Z" fill="#fff"/>
      </g>
    </g>
    <rect id="Rectangle_211" data-name="Rectangle 211" width="80" height="80" transform="translate(1356 -8928)" fill="none"/>
  </g>
</svg>
