<svg xmlns="http://www.w3.org/2000/svg" xmlns:xlink="http://www.w3.org/1999/xlink" width="60" height="60" viewBox="0 0 60 60"><defs><style>.a,.c{fill:#fff;}.a{stroke:#707070;}.b{clip-path:url(#a);}</style><clipPath id="a"><circle class="a" cx="30" cy="30" r="30" transform="translate(16 10)"/></clipPath></defs><g class="b" transform="translate(-16 -10)"><g transform="translate(16 10)"><path class="c" d="M51.213,8.787A30,30,0,1,0,8.787,51.213,30,30,0,1,0,51.213,8.787ZM51,11.606l-3.81,11.726L41.054,25.4,31.035,18.117V11.578l9.972-7.245A28.067,28.067,0,0,1,51,11.606ZM39.661,26.944,35.971,38.3H24.029l-3.69-11.357L30,19.925ZM30,2.071a27.819,27.819,0,0,1,8.69,1.386L30,9.771,21.31,3.457A27.819,27.819,0,0,1,30,2.071ZM18.993,4.334l9.972,7.245v6.539L18.946,25.4l-6.134-2.065L9,11.606A28.063,28.063,0,0,1,18.993,4.334ZM2.071,30A27.777,27.777,0,0,1,7.453,13.539l3.318,10.213-8.7,6.32C2.072,30.048,2.071,30.024,2.071,30Zm.117,2.547L12.164,25.3,18.3,27.364l3.83,11.787-3.789,5.14H6.013A27.731,27.731,0,0,1,2.188,32.547ZM7.38,46.361H18.11l3.321,10.221A28.043,28.043,0,0,1,7.38,46.361ZM30,57.929a27.911,27.911,0,0,1-6.178-.69l-3.81-11.727,3.789-5.14H36.2l3.789,5.14-3.81,11.727A27.916,27.916,0,0,1,30,57.929Zm8.569-1.347L41.89,46.361H52.62A28.043,28.043,0,0,1,38.569,56.582ZM53.987,44.29H41.661l-3.789-5.14L41.7,27.363,47.835,25.3l9.976,7.248A27.729,27.729,0,0,1,53.987,44.29ZM49.229,23.752l3.318-10.213A27.777,27.777,0,0,1,57.929,30c0,.024,0,.048,0,.072Z"/></g></g></svg>