<svg xmlns="http://www.w3.org/2000/svg" xmlns:xlink="http://www.w3.org/1999/xlink" width="44" height="44" viewBox="0 0 44 44"><defs><style>.a,.c{fill:#fff;}.a{stroke:#707070;}.b{clip-path:url(#a);}</style><clipPath id="a"><rect class="a" width="44" height="44" transform="translate(6)"/></clipPath></defs><g class="b" transform="translate(-6)"><g transform="translate(6)"><path class="c" d="M29.356,24.979A.913.913,0,0,0,29.473,24l-.048-.1a4.484,4.484,0,0,0,.882-2.816,1.493,1.493,0,0,1,.222-.944.917.917,0,0,0,.629-.548,13.625,13.625,0,0,0,.983-4.008,1,1,0,0,0-.026-.224,2.37,2.37,0,0,0-.889-1.335V9.167c0-2.954-.9-4.163-1.854-4.867-.18-1.423-1.7-4.3-7.315-4.3-5.68,0-9.167,5.339-9.167,9.167v4.86A2.371,2.371,0,0,0,12,15.362a.909.909,0,0,0-.028.222,13.626,13.626,0,0,0,.983,4.008.779.779,0,0,0,.557.526c.1.049.293.317.293.966,0,1.742,1.307,3.678,2.71,4.965-.191,1.2-1.087,4.367-3,5.166L5.382,33.926a6.39,6.39,0,0,0-4.2,4.532l-1.1,4.4A.918.918,0,0,0,.974,44h0l23.72-.024a.926.926,0,0,0,.913-.93v-11a2.74,2.74,0,0,1,1.485-2.424.917.917,0,0,0,.48-.671A8.265,8.265,0,0,1,29.356,24.979Z"/><path class="c" d="M43.027,31.128h-.917v-.917a6.417,6.417,0,0,0-12.833,0v.917H28.36a.917.917,0,0,0-.917.917v11a.917.917,0,0,0,.917.917H43.027a.917.917,0,0,0,.917-.917v-11A.917.917,0,0,0,43.027,31.128Zm-6.417,7.053v1.2a.917.917,0,0,1-1.833,0v-1.2a1.811,1.811,0,0,1-.917-1.551,1.833,1.833,0,0,1,3.667,0A1.811,1.811,0,0,1,36.611,38.181Zm3.667-7.053H31.111v-.917a4.583,4.583,0,0,1,9.167,0v.917Z"/></g></g></svg>