<svg xmlns="http://www.w3.org/2000/svg" xmlns:xlink="http://www.w3.org/1999/xlink" width="60" height="60" viewBox="0 0 60 60"><defs><style>.a,.c{fill:#fff;}.a{stroke:#707070;}.b{clip-path:url(#a);}</style><clipPath id="a"><circle class="a" cx="30" cy="30" r="30" transform="translate(16 10)"/></clipPath></defs><g class="b" transform="translate(-16 -10)"><path class="c" d="M51.213,8.787A30,30,0,0,0,8.787,51.213,30,30,0,0,0,51.213,8.787ZM43.122,7V29.234a13.122,13.122,0,0,1-26.244,0V7A26.441,26.441,0,0,1,43.122,7ZM30,56.484A26.473,26.473,0,0,1,13.362,9.41V29.234a16.638,16.638,0,0,0,33.275,0V9.41A26.473,26.473,0,0,1,30,56.484Zm0,0" transform="translate(16 10)"/></g></svg>