<svg xmlns="http://www.w3.org/2000/svg" xmlns:xlink="http://www.w3.org/1999/xlink" width="44" height="44" viewBox="0 0 44 44"><defs><style>.a,.c{fill:#fff;}.a{stroke:#707070;}.b{clip-path:url(#a);}</style><clipPath id="a"><rect class="a" width="44" height="44"/></clipPath></defs><g class="b"><path class="c" d="M11,16.867a2.2,2.2,0,1,0-2.2-2.2A2.2,2.2,0,0,0,11,16.867Zm0-2.933a.733.733,0,1,1-.733.733A.733.733,0,0,1,11,13.933Zm0,0"/><path class="c" d="M40.333,19.8V.733A.733.733,0,0,0,39.6,0H4.4a.733.733,0,0,0-.733.733v2.2a3.667,3.667,0,1,0,0,7.333v33A.733.733,0,0,0,4.4,44H39.6a.733.733,0,0,0,.733-.733V27.133a3.667,3.667,0,0,0,0-7.333ZM1.467,6.6a2.2,2.2,0,1,1,2.2,2.2A2.2,2.2,0,0,1,1.467,6.6Zm37.4,35.933H5.133V9.956a3.659,3.659,0,0,0,0-6.712V1.467H38.867V20.111A3.678,3.678,0,0,0,37.4,21.289V11a.733.733,0,0,0-.733-.733H7.333A.733.733,0,0,0,6.6,11V40.333a.733.733,0,0,0,.733.733H36.667a.733.733,0,0,0,.733-.733V25.644a3.678,3.678,0,0,0,1.467,1.178ZM28.6,39.6H22.733V33.733H28.6Zm-7.333,0H15.4V33.733h5.867Zm-7.333,0H8.067V33.733h5.867ZM15.4,11.733h5.867V17.6H15.4Zm7.333,0H28.6V17.6H22.733Zm7.333,0h5.867V17.6H30.067ZM28.6,24.933H22.733V19.067H28.6Zm-7.333,0H15.4V19.067h5.867Zm-7.333,0H8.067V19.067h5.867ZM8.067,26.4h5.867v5.867H8.067Zm7.333,0h5.867v5.867H15.4Zm7.333,0H28.6v5.867H22.733Zm7.333,0h5.867v5.867H30.067Zm5.867-1.467H30.067V19.067h5.867Zm-22-7.333H8.067V11.733h5.867ZM30.067,33.733h5.867V39.6H30.067Zm10.267-8.067a2.2,2.2,0,1,1,2.2-2.2A2.2,2.2,0,0,1,40.333,25.667Zm0,0"/><path class="c" d="M18.333,24.2a2.2,2.2,0,1,0-2.2-2.2A2.2,2.2,0,0,0,18.333,24.2Zm0-2.933A.733.733,0,1,1,17.6,22,.733.733,0,0,1,18.333,21.267Zm0,0"/><path class="c" d="M25.667,27.133a2.2,2.2,0,1,0,2.2,2.2A2.2,2.2,0,0,0,25.667,27.133Zm0,2.933a.733.733,0,1,1,.733-.733A.733.733,0,0,1,25.667,30.067Zm0,0"/><path class="c" d="M33,34.467a2.2,2.2,0,1,0,2.2,2.2A2.2,2.2,0,0,0,33,34.467ZM33,37.4a.733.733,0,1,1,.733-.733A.733.733,0,0,1,33,37.4Zm0,0"/><path class="c" d="M29.333,8.8h7.333a.733.733,0,1,0,0-1.467H29.333a.733.733,0,1,0,0,1.467Zm0,0"/><path class="c" d="M29.333,5.867h7.333a.733.733,0,1,0,0-1.467H29.333a.733.733,0,1,0,0,1.467Zm0,0"/><path class="c" d="M10.267,8.8H26.4a.733.733,0,0,0,.733-.733V4.4a.733.733,0,0,0-.733-.733H10.267a.733.733,0,0,0-.733.733V8.067A.733.733,0,0,0,10.267,8.8ZM11,5.133H25.667v2.2H11Zm0,0"/></g></svg>