<svg xmlns="http://www.w3.org/2000/svg" xmlns:xlink="http://www.w3.org/1999/xlink" width="60" height="60" viewBox="0 0 60 60"><defs><style>.a,.c{fill:#fff;}.a{stroke:#707070;}.b{clip-path:url(#a);}</style><clipPath id="a"><circle class="a" cx="30" cy="30" r="30" transform="translate(16 10)"/></clipPath></defs><g class="b" transform="translate(-16 -10)"><g transform="translate(16 10)"><path class="c" d="M59.9,27.54A30,30,0,0,0,6.07,11.9,29.691,29.691,0,0,0,0,30q0,1.238.1,2.46A30,30,0,0,0,53.93,48.1,29.691,29.691,0,0,0,60,30Q60,28.762,59.9,27.54ZM2.7,27.811c.018-.24.056-.475.081-.712.05-.481.1-.964.173-1.44.044-.282.108-.558.162-.839.081-.427.159-.853.26-1.274.07-.293.159-.58.239-.871.11-.4.218-.8.346-1.192.1-.3.209-.586.316-.878.138-.378.275-.757.43-1.13.123-.293.258-.58.391-.87.166-.361.333-.721.515-1.076.147-.287.307-.569.464-.852.193-.344.389-.687.6-1.024.173-.28.356-.556.54-.831.127-.189.26-.374.391-.561A16.931,16.931,0,0,1,18.21,28.7H2.661C2.674,28.4,2.674,28.1,2.7,27.811ZM7.6,45.738c-.13-.184-.262-.368-.387-.556-.187-.279-.372-.558-.548-.843-.206-.333-.4-.672-.59-1.012-.16-.286-.321-.571-.471-.863-.18-.351-.346-.707-.51-1.064-.134-.292-.271-.583-.4-.88-.154-.369-.291-.745-.428-1.12-.107-.295-.22-.587-.318-.886-.128-.391-.235-.789-.344-1.186-.081-.292-.17-.582-.24-.877-.1-.42-.179-.847-.26-1.272-.053-.28-.117-.557-.162-.839-.076-.476-.124-.959-.173-1.44-.025-.237-.063-.472-.081-.712-.022-.293-.021-.59-.034-.884h15.55A16.935,16.935,0,0,1,7.6,45.738ZM28.7,57.353A27.121,27.121,0,0,1,9.24,47.87,19.523,19.523,0,0,0,20.817,31.3H28.7Zm0-28.658H20.817A19.525,19.525,0,0,0,9.24,12.13,27.116,27.116,0,0,1,28.7,2.647ZM31.3,2.647A27.121,27.121,0,0,1,50.76,12.13,19.523,19.523,0,0,0,39.183,28.7H31.3Zm0,54.707V31.3h7.878A19.525,19.525,0,0,0,50.76,47.87,27.116,27.116,0,0,1,31.3,57.353Zm26-25.165c-.018.239-.056.473-.081.712-.05.481-.1.964-.173,1.44-.044.282-.108.558-.162.839-.081.427-.159.853-.26,1.274-.07.293-.159.58-.239.871-.11.4-.218.8-.346,1.192-.1.3-.209.586-.316.878-.138.378-.275.757-.43,1.13-.123.293-.258.58-.391.87-.166.361-.333.721-.515,1.076-.147.287-.307.569-.464.852-.193.344-.389.687-.6,1.024-.173.28-.356.556-.54.831-.127.189-.26.374-.391.561A16.931,16.931,0,0,1,41.79,31.3H57.339C57.326,31.6,57.326,31.9,57.3,32.189ZM41.789,28.7A16.935,16.935,0,0,1,52.4,14.262c.13.184.261.368.386.554.187.279.373.56.549.844.206.333.4.67.588,1.01.16.287.322.573.472.865.18.351.344.707.509,1.064.134.292.271.583.4.88.154.369.291.745.428,1.12.107.295.22.587.318.886.128.391.235.789.344,1.186.081.292.17.582.24.877.1.42.179.847.26,1.272.053.28.117.558.162.84.074.476.124.959.173,1.44.025.237.063.473.081.712.022.292.022.59.035.884H41.789Z"/></g></g></svg>