<svg xmlns="http://www.w3.org/2000/svg" xmlns:xlink="http://www.w3.org/1999/xlink" width="60" height="60" viewBox="0 0 60 60"><defs><style>.a,.c{fill:#fff;}.a{stroke:#707070;}.b{clip-path:url(#a);}</style><clipPath id="a"><circle class="a" cx="30" cy="30" r="30" transform="translate(16 10)"/></clipPath></defs><g class="b" transform="translate(-16 -10)"><g transform="translate(16 10)"><path class="c" d="M58.875,21.938h0A29.988,29.988,0,1,0,6.25,48.312h0a1.321,1.321,0,0,0,.75.875,30.829,30.829,0,0,0,13.5,9.25h.125A29.449,29.449,0,0,0,30,59.937a30.088,30.088,0,0,0,30-30A28.119,28.119,0,0,0,58.875,21.938ZM30.25,28.687A25.245,25.245,0,0,1,23.5,17.812c4.375-1,19.875-3.75,33,5a27.238,27.238,0,0,1,1,7.125,23.8,23.8,0,0,1-.875,6.75C46.25,26.312,33.25,28.062,30.25,28.687ZM20,41.187c-2.75-3.625-12.375-17.625-6.625-32.75v-.25a29.431,29.431,0,0,1,7-3.875,27.5,27.5,0,0,0,.375,12.875v.125a.122.122,0,0,0,.125.125,31.553,31.553,0,0,0,7.75,13.125A32.4,32.4,0,0,1,20,41.187Zm35.25-22c-13.5-7.5-28.125-4.75-32.375-3.75a24.682,24.682,0,0,1,.375-12A30.267,30.267,0,0,1,30,2.562,27.648,27.648,0,0,1,55.25,19.187ZM9.875,11.437C6.375,26.187,15,38.937,18,42.687a29.042,29.042,0,0,1-9.75,4.125A27.477,27.477,0,0,1,2.625,30.187,26.251,26.251,0,0,1,9.875,11.437ZM10,48.812a32.488,32.488,0,0,0,21.125-17.75A28.251,28.251,0,0,1,45.5,32.312C44,36.062,37,52.062,21.125,55.937A25.5,25.5,0,0,1,10,48.812Zm20,8.75a25.855,25.855,0,0,1-4.375-.375c14.25-5.5,20.625-19.875,22.125-23.75a27.254,27.254,0,0,1,8.125,6.125A27.58,27.58,0,0,1,30,57.562Z"/></g></g></svg>