<svg xmlns="http://www.w3.org/2000/svg" xmlns:xlink="http://www.w3.org/1999/xlink" width="44" height="44" viewBox="0 0 44 44"><defs><style>.a,.c{fill:#fff;}.a{stroke:#707070;}.b{clip-path:url(#a);}</style><clipPath id="a"><rect class="a" width="44" height="44" transform="translate(9)"/></clipPath></defs><g class="b" transform="translate(-9)"><g transform="translate(9 0)"><path class="c" d="M42.066,18.777h-.644V9.968A4.087,4.087,0,0,0,37.34,5.886h-17.7L7.7,2.474l-.01,0-.01,0-.021,0-.033-.007-.03,0-.035,0H7.492l-.026,0-.037,0-.025,0-.037.008-.023.006-.037.012-.021.008-.037.015-.019.009-.036.019-.018.011-.034.023-.017.013-.031.025-.017.015-.028.027-.016.018L7.01,2.7l-.016.022-.02.029-.015.026L6.944,2.8l-.013.029-.012.029c0,.01-.007.021-.011.032s0,.013-.007.021l0,.01,0,.01L6.158,5.885H4.082A4.087,4.087,0,0,0,0,9.954s0,.009,0,.014V32.311a.645.645,0,0,0,1.289,0V12.94A4.066,4.066,0,0,0,4.082,14.05h33.26a2.8,2.8,0,0,1,2.791,2.793v4.512H33.041l-.056,0c-.021,0-.041,0-.061.008h-.009l-.05.012-.011,0-.043.015L32.8,21.4l-.035.016-.023.011-.026.015-.029.017-.018.013-.033.024-.013.012-.033.03-.018.02-.025.028q-.02.024-.037.051h0L29.069,26.8a.634.634,0,0,0-.06.114c-.006.015-.011.03-.016.045l0,.013c0,.016-.009.032-.012.048l0,.013c0,.014,0,.029-.007.043s0,.012,0,.019,0,.024,0,.036,0,.018,0,.027,0,.018,0,.027,0,.024,0,.037,0,.012,0,.018,0,.03.007.044l0,.012c0,.016.007.032.012.048l0,.014c0,.015.01.03.016.045a.642.642,0,0,0,.061.114l3.437,5.156h0a.666.666,0,0,0,.045.059l.016.018.034.035.021.019.039.031.018.013a.644.644,0,0,0,.06.036l.016.008.051.023.02.007.05.016.021.005.053.01.02,0a.648.648,0,0,0,.068,0h7.1v4.512a2.8,2.8,0,0,1-2.793,2.793H4.083A2.8,2.8,0,0,1,1.29,37.469s0-.007,0-.01V34.89A.645.645,0,0,0,0,34.89v2.579c0,.007,0,.013,0,.02a4.086,4.086,0,0,0,4.082,4.062H37.341a4.087,4.087,0,0,0,4.082-4.082h0V32.956h.644A1.935,1.935,0,0,0,44,31.023V20.71A1.936,1.936,0,0,0,42.066,18.777ZM7.984,3.9l11.373,3.25h0L26.98,9.324H6.627Zm32.15,9.974a4.066,4.066,0,0,0-2.793-1.109H4.082a2.793,2.793,0,0,1,0-5.586H5.835L5.3,9.324H4.083a.645.645,0,0,0,0,1.289h32.4a.645.645,0,0,0,0-1.289H31.673L24.151,7.175H37.34a2.8,2.8,0,0,1,2.793,2.793Zm2.578,17.153h0a.645.645,0,0,1-.644.644H33.387L30.38,27.156l3.008-4.512h8.706a1.926,1.926,0,0,0,.617-.11v8.49Zm-.644-9.669h-.644V20.066h.644a.644.644,0,1,1,0,1.288Z"/><path class="c" d="M35.621,24.792a2.363,2.363,0,1,0,2.363,2.363A2.366,2.366,0,0,0,35.621,24.792Zm0,3.438A1.074,1.074,0,1,1,36.7,27.156,1.075,1.075,0,0,1,35.621,28.23Z"/></g></g></svg>