<svg xmlns="http://www.w3.org/2000/svg" xmlns:xlink="http://www.w3.org/1999/xlink" width="80" height="80" viewBox="0 0 80 80"><defs><style>.a,.c{fill:#fff;}.a{stroke:#707070;}.b{clip-path:url(#a);}</style><clipPath id="a"><circle class="a" cx="40" cy="40" r="40" transform="translate(56 24)"/></clipPath></defs><g class="b" transform="translate(-56 -24)"><g transform="translate(56 24)"><path class="c" d="M79.87,36.72A40.006,40.006,0,0,0,8.094,15.87,39.588,39.588,0,0,0,0,40q0,1.651.13,3.28A40.006,40.006,0,0,0,71.906,64.13,39.588,39.588,0,0,0,80,40Q80,38.349,79.87,36.72Zm-76.275.362c.024-.32.075-.633.108-.95.066-.642.132-1.285.231-1.92.059-.376.144-.744.216-1.118.108-.569.212-1.137.346-1.7.094-.391.212-.774.318-1.162.146-.532.29-1.064.461-1.59.129-.395.278-.781.421-1.17.184-.5.367-1.009.574-1.506.163-.391.344-.774.522-1.16.221-.482.443-.962.687-1.435.2-.383.409-.758.619-1.136.257-.459.518-.917.8-1.365.231-.374.475-.741.72-1.108.169-.252.346-.5.522-.748A22.575,22.575,0,0,1,24.28,38.261H3.548C3.565,37.868,3.565,37.473,3.595,37.082Zm6.541,23.9c-.174-.245-.35-.49-.517-.741-.249-.372-.5-.744-.73-1.123-.275-.443-.532-.9-.786-1.35-.214-.381-.428-.762-.628-1.151-.24-.468-.461-.943-.68-1.419-.179-.39-.362-.777-.527-1.174-.205-.492-.388-.993-.57-1.494-.143-.393-.294-.783-.424-1.181C5.1,50.83,4.96,50.3,4.814,49.77c-.108-.39-.226-.776-.32-1.169-.134-.56-.238-1.129-.346-1.7-.071-.374-.157-.743-.216-1.118-.1-.635-.165-1.278-.231-1.92-.033-.317-.083-.63-.108-.95-.03-.391-.028-.786-.045-1.179H24.282A22.58,22.58,0,0,1,10.136,60.984ZM38.261,76.471A36.161,36.161,0,0,1,12.32,63.826,26.03,26.03,0,0,0,27.757,41.739h10.5Zm0-38.21h-10.5A26.033,26.033,0,0,0,12.32,16.174,36.155,36.155,0,0,1,38.261,3.529ZM41.739,3.529A36.161,36.161,0,0,1,67.68,16.174,26.03,26.03,0,0,0,52.243,38.261h-10.5Zm0,72.943V41.739h10.5A26.033,26.033,0,0,0,67.68,63.826,36.155,36.155,0,0,1,41.739,76.471ZM76.405,42.918c-.024.318-.075.631-.108.95-.066.642-.132,1.285-.231,1.92-.059.376-.144.744-.216,1.118-.108.569-.212,1.137-.346,1.7-.094.391-.212.774-.318,1.162-.146.532-.29,1.064-.461,1.59-.129.395-.278.781-.421,1.17-.184.5-.367,1.009-.574,1.506-.163.391-.344.774-.522,1.16-.221.482-.443.962-.687,1.435-.2.383-.409.758-.619,1.136-.257.459-.518.917-.8,1.365-.231.374-.475.741-.72,1.108-.169.252-.346.5-.522.748A22.575,22.575,0,0,1,55.72,41.739H76.452C76.435,42.132,76.435,42.527,76.405,42.918ZM55.718,38.261A22.58,22.58,0,0,1,69.864,19.016c.174.245.348.49.515.739.249.372.5.746.732,1.125.275.443.532.894.784,1.346.214.383.43.763.63,1.153.24.468.459.943.678,1.419.179.39.362.777.527,1.174.205.492.388.993.57,1.494.143.393.294.783.424,1.181.17.522.313,1.052.459,1.581.108.39.226.776.32,1.169.134.56.238,1.129.346,1.7.071.374.157.744.216,1.12.1.635.165,1.278.231,1.92.033.317.083.631.108.95.03.39.03.786.047,1.179H55.718Z"/></g></g></svg>