<svg xmlns="http://www.w3.org/2000/svg" xmlns:xlink="http://www.w3.org/1999/xlink" width="80" height="80" viewBox="0 0 80 80"><defs><style>.a,.c{fill:#fff;}.a{stroke:#707070;}.b{clip-path:url(#a);}</style><clipPath id="a"><circle class="a" cx="40" cy="40" r="40" transform="translate(56 24)"/></clipPath></defs><g class="b" transform="translate(-56 -24)"><path class="c" d="M68.284,11.716A40,40,0,0,0,11.716,68.284,40,40,0,0,0,68.284,11.716ZM57.5,9.335V38.978a17.5,17.5,0,0,1-34.992,0V9.335a35.254,35.254,0,0,1,34.992,0ZM40,75.313A35.3,35.3,0,0,1,17.816,12.547V38.978a22.184,22.184,0,0,0,44.367,0V12.547A35.3,35.3,0,0,1,40,75.313Zm0,0" transform="translate(56 24)"/></g></svg>